<svg xmlns="http://www.w3.org/2000/svg" viewBox="0 0 960 640" role="img" aria-labelledby="title desc">
  <title id="title">Abstract brand slots visual</title>
  <desc id="desc">Abstract payment cards, slot reels, and checklist shapes for a brand review template.</desc>
  <rect width="960" height="640" fill="#f3fbf8"/>
  <circle cx="770" cy="118" r="92" fill="#d7f0e5"/>
  <circle cx="170" cy="520" r="124" fill="#fde9b4"/>
  <rect x="142" y="112" width="676" height="408" rx="28" fill="#0f2e2d"/>
  <rect x="186" y="162" width="270" height="168" rx="18" fill="#ffffff"/>
  <rect x="502" y="162" width="270" height="168" rx="18" fill="#ffffff"/>
  <rect x="186" y="370" width="586" height="84" rx="18" fill="#173d3a"/>
  <circle cx="248" cy="246" r="44" fill="#18a77d"/>
  <circle cx="318" cy="246" r="44" fill="#f7c948"/>
  <circle cx="388" cy="246" r="44" fill="#ff735c"/>
  <rect x="548" y="205" width="178" height="20" rx="10" fill="#18a77d"/>
  <rect x="548" y="250" width="132" height="20" rx="10" fill="#f7c948"/>
  <path d="M232 412h86m48 0h142m48 0h118" stroke="#ffffff" stroke-width="20" stroke-linecap="round"/>
  <path d="M650 92l36 36 78-82" fill="none" stroke="#18a77d" stroke-width="22" stroke-linecap="round" stroke-linejoin="round"/>
</svg>
