<svg xmlns="http://www.w3.org/2000/svg" xmlns:xlink="http://www.w3.org/1999/xlink" version="1.1" id="Layer_1" x="0px" y="0px" viewBox="0 0 237.5 40.1" style="enable-background:new 0 0 237.5 40.1;" xml:space="preserve" width="237.5"  height="40.1" >
<style type="text/css">
	.st0{fill:#8DC640;}
</style>
<g>
	<path class="st0" d="M209.5,16.9c-1.3,0.9-3.1,1.3-5.7,1.3h-1.1h-1.4l1.9-10.4h1h0.9c2.1,0,3.6,0.3,4.7,1c0.8,0.5,1.8,1.6,1.8,3.6   C211.6,14.9,210.5,16.2,209.5,16.9 M59.8,29.9H40.4l1.3-6.8h12.2l1.4-7.7H43.2l1.2-6.7h19.4L59.8,29.9z M219.9,2.9   c-2.9-2-7.2-2.9-12.8-2.9h-14.8l-5.5,29.9h-19.4l1.2-6.8h11.7l1.4-7.6l-11.7,0l1.3-6.8h12.1l1.6-8.8h-24.5l-5.2,28.4h-9L151.5,0   h-12.8l-5.2,28.4h-8.8L129.9,0h-12.8l-5.5,29.9H92l1.2-6.8H105l1.4-7.6l-11.7,0l1.2-6.8h12.2l1.6-8.8H33.4l-4.3,23.7L20.4,0H7.1   L0,38.7h12.7L17,14.3l8.4,24.4h45.5l5.5-29.9h7.1L78,38.7h119.6l3.5-18.9l5.6,18.9h12.7l-5.8-15.4l1.3-0.3c2.9-0.6,5.2-2,6.8-4   c1.6-2,2.4-4.7,2.4-7.8C224,7.5,222.7,4.8,219.9,2.9"/>
	<path class="st0" d="M230.4,34.1l1.7-0.1c0.4,0,0.7-0.1,0.9-0.2c0.2-0.1,0.4-0.2,0.5-0.4c0.1-0.2,0.1-0.4,0.1-0.6   c0-0.3-0.1-0.5-0.3-0.7c-0.2-0.2-0.6-0.2-1-0.2l-1.9,0.1L230.4,34.1z M229.8,37.6l-0.3-6.1l2.7-0.1c0.5,0,1,0,1.2,0.1   c0.3,0.1,0.5,0.3,0.7,0.5c0.2,0.3,0.3,0.6,0.3,0.9c0,0.4-0.1,0.8-0.4,1.1c-0.3,0.3-0.7,0.5-1.3,0.6c0.2,0.1,0.4,0.2,0.5,0.3   c0.2,0.2,0.5,0.5,0.7,0.8l1.1,1.6l-1,0.1l-0.9-1.2c-0.3-0.4-0.5-0.6-0.6-0.8c-0.2-0.2-0.3-0.3-0.4-0.4c-0.1-0.1-0.3-0.1-0.4-0.1   c-0.1,0-0.2,0-0.5,0l-0.9,0l0.1,2.7L229.8,37.6z"/>
	<path class="st0" d="M227.1,34.6c-0.1-1.3,0.4-2.5,1.2-3.4c0.8-0.9,2-1.5,3.3-1.6c2.6-0.1,4.8,1.9,5,4.5c0,0.1,0,0.2,0,0.2   c0,2.5-2,4.6-4.5,4.7C229.5,39.2,227.3,37.2,227.1,34.6 M231.6,28.7c-1.5,0.1-2.9,0.7-3.9,1.9c-1,1.1-1.5,2.6-1.5,4.1   c0.2,3.1,2.8,5.5,6,5.4c3.1-0.2,5.6-2.8,5.4-6v0C237.4,31,234.7,28.5,231.6,28.7"/>
</g>
</svg>