<svg xmlns="http://www.w3.org/2000/svg" xmlns:xlink="http://www.w3.org/1999/xlink" version="1.1" id="Layer_1" x="0px" y="0px" viewBox="0 0 191.8 77.2" style="enable-background:new 0 0 191.8 77.2;" xml:space="preserve" width="191.8"  height="77.2" >
<style type="text/css">
	.st0{fill:#062A2F;}
	.st1{fill:#F89572;}
</style>
<path class="st0" d="M0,20.7C0,8,8.7,0,20.2,0c11.6,0,20.2,7.9,20.2,20.6s-8.6,20.7-20.2,20.7C8.7,41.3,0,33.4,0,20.7z M32.2,20.7  c0-8.6-5.3-13.6-11.9-13.6c-6.7,0-12,5-12,13.6s5.3,13.6,12,13.6C26.9,34.3,32.2,29.2,32.2,20.7z M76.8,0.4v40.5h-7.7L50.6,12.7  v28.2h-8V0.4h7.6l18.5,28.3V0.4C68.7,0.4,76.8,0.4,76.8,0.4z M109.1,33.8v7.1h-28V0.4h8.1v33.3h19.9  C109.1,33.7,109.1,33.8,109.1,33.8z M112.6,0.4h8.1v40.5h-8.1V0.4z M158.9,0.4v40.5h-7.7l-18.5-28.2v28.2h-8V0.4h7.6l18.5,28.3V0.4  H158.9L158.9,0.4z M191.6,34.1v6.8H163V0.4h28.2v6.8h-20.1v9.7h17.8v6.7h-17.8v10.6C171.1,34.2,191.6,34.1,191.6,34.1z"/>
<path class="st1" d="M18.9,54.1v13.8c0,5.8-3.6,9.2-9.3,9.2c-5.9,0-9.4-3.5-9.4-9.2V54.1h4.1v13.8c0,3.8,1.9,5.7,5.3,5.7  s5.3-1.9,5.3-5.7V54.1C14.9,54.1,18.9,54.1,18.9,54.1z M8.6,50.1c0,1.3-0.9,2.2-2.2,2.2s-2.3-0.9-2.3-2.2s0.9-2.2,2.3-2.2  S8.6,48.8,8.6,50.1z M15.1,50.1c0,1.3-0.9,2.2-2.3,2.2c-1.3,0-2.2-0.9-2.2-2.2s0.9-2.2,2.2-2.2C14.2,47.9,15.1,48.8,15.1,50.1z   M38.9,70.7c0,3.8-2.8,6.3-6.9,6.3H21.9V54.1h9.8c4,0,6.4,2.5,6.4,5.7s-2.1,4.7-3.3,5.1V65C36.8,65.5,38.9,67.4,38.9,70.7z   M30.6,57.3h-4.7v6.4h4.7c2.2,0,3.4-1.3,3.4-3.2C34,58.4,32.8,57.3,30.6,57.3z M34.8,70.2c0-2.3-1.5-3.5-3.8-3.5h-5.1v7h5.3  C33.4,73.7,34.8,72.6,34.8,70.2z M57.5,73.5V77H41.6V54.1h15.7v3.5H45.7v6h10.4V67H45.7v6.6L57.5,73.5L57.5,73.5z M78.9,76.8  c-0.6,0.2-1.3,0.3-2.2,0.3c-3.2,0-4.4-1.5-5.6-3.7l-2.7-5.1h-4v8.6h-4.1V54.1h8.9c4.9,0,8,2.5,8,7.2c0,3.3-1.7,5.5-4.4,6.5l2.3,4.5  c0.6,1.2,1.4,1.5,2.2,1.5c0.6,0,1-0.1,1.3-0.2L78.9,76.8L78.9,76.8z M64.4,65.1h4.8c2.6,0,3.9-1.6,3.9-3.8s-1.3-3.8-3.9-3.8h-4.8  V65.1z M109.5,54.1L103.1,77h-4.5l-4.5-18.1L89.6,77H85l-6.4-22.9h4.1L87.4,73L92,54.1h4.3l4.6,18.8l4.7-18.8  C105.6,54.1,109.5,54.1,109.5,54.1z M126.6,73.5V77h-15.9V54.1h15.7v3.5h-11.6v6h10.4V67h-10.4v6.6L126.6,73.5L126.6,73.5z   M129.4,54.1h4.1V77h-4.1V54.1z M153.1,70.8c0,3.9-3.6,6.4-8.9,6.4c-5.6,0-8.9-2.5-8.9-7h4.1c0,2.2,1.7,3.5,5,3.5  c2.9,0,4.6-1.1,4.6-3c0-5.6-13.2-1.3-13.2-10.4c0-3.9,3.4-6.5,8.5-6.5c5.2,0,8.4,2.6,8.4,6.9h-4.1c0-2.3-1.6-3.4-4.4-3.4  c-3,0-4.4,1.1-4.4,2.9C139.9,65.6,153.1,61.3,153.1,70.8L153.1,70.8z M170.8,73.5V77h-15.9V54.1h15.7v3.5H159v6h10.4V67H159v6.6  L170.8,73.5L170.8,73.5L170.8,73.5z M191.8,54.1V77h-3.9L177,60.3V77h-4V54.1h3.9l10.9,16.8V54.1H191.8z"/>
</svg>