<svg xmlns="http://www.w3.org/2000/svg" xmlns:xlink="http://www.w3.org/1999/xlink" version="1.1" id="Layer_1" x="0px" y="0px" viewBox="0 0 443.3 113.3" style="enable-background:new 0 0 443.3 113.3;" xml:space="preserve" width="443.3"  height="113.3" >
<style type="text/css">
	.st0{fill:#139AD6;}
	.st1{fill:#263B80;}
	.st2{fill:#232C65;}
</style>
<path class="st0" d="M342.7,29.6h-23.9c-1.4,0-2.8,1.4-3.5,2.8l-9.9,61.9c0,1.4,0.7,2.1,2.1,2.1h12.7c1.4,0,2.1-0.7,2.1-2.1  l2.8-17.6c0-1.4,1.4-2.8,3.5-2.8h7.7c16.2,0,25.3-7.7,27.4-23.2c1.4-6.3,0-12-2.8-15.5C356.7,31.7,350.4,29.6,342.7,29.6   M345.5,52.8c-1.4,8.4-7.7,8.4-14.1,8.4h-4.2L330,45c0-0.7,0.7-1.4,2.1-1.4h1.4c4.2,0,8.4,0,10.6,2.8  C345.5,47.1,345.5,49.3,345.5,52.8"/>
<path class="st1" d="M170.3,29.6h-23.9c-1.4,0-2.8,1.4-3.5,2.8L133,94.3c0,1.4,0.7,2.1,2.1,2.1h11.3c1.4,0,2.8-1.4,3.5-2.8l2.8-16.9  c0-1.4,1.4-2.8,3.5-2.8h7.7c16.2,0,25.3-7.7,27.4-23.2c1.4-6.3,0-12-2.8-15.5C184.4,31.7,178.7,29.6,170.3,29.6 M173.1,52.8  c-1.4,8.4-7.7,8.4-14.1,8.4h-3.5l2.8-16.2c0-0.7,0.7-1.4,2.1-1.4h1.4c4.2,0,8.4,0,10.6,2.8C173.1,47.1,173.8,49.3,173.1,52.8   M242.8,52.1h-11.3c-0.7,0-2.1,0.7-2.1,1.4l-0.7,3.5l-0.7-1.4c-2.8-3.5-7.7-4.9-13.4-4.9c-12.7,0-23.9,9.9-26,23.2  c-1.4,7,0.7,13.4,4.2,17.6c3.5,4.2,8.4,5.6,14.8,5.6c10.6,0,16.2-6.3,16.2-6.3l-0.7,3.5c0,1.4,0.7,2.1,2.1,2.1h10.6  c1.4,0,2.8-1.4,3.5-2.8l6.3-39.4C244.9,53.5,243.5,52.1,242.8,52.1 M226.6,74.6c-1.4,6.3-6.3,11.3-13.4,11.3c-3.5,0-6.3-1.4-7.7-2.8  c-1.4-2.1-2.1-4.9-2.1-8.4c0.7-6.3,6.3-11.3,12.7-11.3c3.5,0,5.6,1.4,7.7,2.8C225.9,68.3,226.6,71.8,226.6,74.6"/>
<path class="st0" d="M414.4,52.1h-11.3c-0.7,0-2.1,0.7-2.1,1.4l-0.7,3.5l-0.7-1.4c-2.8-3.5-7.7-4.9-13.4-4.9  c-12.7,0-23.9,9.9-26,23.2c-1.4,7,0.7,13.4,4.2,17.6c3.5,4.2,8.4,5.6,14.8,5.6c10.6,0,16.2-6.3,16.2-6.3l-0.7,3.5  c0,1.4,0.7,2.1,2.1,2.1h10.6c1.4,0,2.8-1.4,3.5-2.8l6.3-39.4C416.6,53.5,415.9,52.1,414.4,52.1 M398.3,74.6  c-1.4,6.3-6.3,11.3-13.4,11.3c-3.5,0-6.3-1.4-7.7-2.8c-1.4-2.1-2.1-4.9-2.1-8.4c0.7-6.3,6.3-11.3,12.7-11.3c3.5,0,5.6,1.4,7.7,2.8  C398.3,68.3,399,71.8,398.3,74.6"/>
<path class="st1" d="M304,52.1h-12c-1.4,0-2.1,0.7-2.8,1.4l-15.5,23.9l-7-22.5c-0.7-1.4-1.4-2.1-3.5-2.1h-11.3  c-1.4,0-2.1,1.4-2.1,2.8l12.7,37.3l-12,16.9c-0.7,1.4,0,3.5,1.4,3.5h11.3c1.4,0,2.1-0.7,2.8-1.4l38.7-55.6  C306.8,54.2,305.4,52.1,304,52.1"/>
<path class="st0" d="M427.8,31.7L418,95c0,1.4,0.7,2.1,2.1,2.1h9.9c1.4,0,2.8-1.4,3.5-2.8l9.9-61.9c0-1.4-0.7-2.1-2.1-2.1h-11.3  C429.2,29.6,428.5,30.3,427.8,31.7"/>
<path class="st1" d="M80.9,8.4C76,2.8,66.8,0,54.2,0H19c-2.1,0-4.2,2.1-4.9,4.2L0,96.4c0,2.1,1.4,3.5,2.8,3.5h21.8l5.6-34.5v1.4  c0.7-2.1,2.8-4.2,4.9-4.2h10.6c20.4,0,35.9-8.4,40.8-31.7v-2.1c-0.7,0-0.7,0,0,0C87.3,19.7,85.8,14.1,80.9,8.4"/>
<path class="st0" d="M85.8,28.8V31C80.9,54.9,65.4,62.6,45,62.6H34.5c-2.1,0-4.2,2.1-4.9,4.2l-7,42.9c0,1.4,0.7,2.8,2.8,2.8h18.3  c2.1,0,4.2-1.4,4.2-3.5v-0.7l3.5-21.8v-1.4c0-2.1,2.1-3.5,4.2-3.5h2.8c17.6,0,31.7-7,35.2-28.1c1.4-8.4,0.7-16.2-3.5-21.1  C89.4,31,88,29.6,85.8,28.8"/>
<path class="st2" d="M80.9,26.7c-0.7,0-1.4-0.7-2.1-0.7s-1.4,0-2.1-0.7c-2.8-0.7-5.6-0.7-9.1-0.7H40.1c-0.7,0-1.4,0-2.1,0.7  c-1.4,0.7-2.1,2.1-2.1,3.5l-5.6,36.6v1.4c0.7-2.1,2.8-4.2,4.9-4.2h10.6c20.4,0,35.9-8.4,40.8-31.7c0-0.7,0-1.4,0.7-2.1  c-1.4-0.7-2.1-1.4-3.5-1.4C81.6,26.7,81.6,26.7,80.9,26.7"/>
</svg>