<svg xmlns:xlink="http://www.w3.org/1999/xlink" xmlns="http://www.w3.org/2000/svg" id="Layer_2" data-name="Layer 2" viewBox="0 0 600 152.54" width="600"  height="152.54" >
  <defs>
    <style>
      .cls-1 {
        fill: #dcfa14;
      }
    </style>
  </defs>
  <g id="Layer_1-2" data-name="Layer 1">
    <g>
      <g>
        <path d="m79.54,58.84v-1.67c0-19.21-8.35-28.39-21.5-28.39s-21.71,9.81-21.71,28.18v1.67c0,18.58,8.14,27.98,21.71,27.98s21.5-9.81,21.5-27.77M71.4.59c25.47,0,46.14,19.21,46.14,56.58v1.67c0,37.58-20.67,56.37-46.35,56.37-16.49,0-28.39-7.72-33.82-18.58v52.61H0V3.51h37.37v16.28C43.63,9.36,54.91.59,71.4.59"/>
        <path d="m206.73,58.04v-1.67c0-19-7.93-28.18-20.46-28.18-13.15,0-20.88,9.39-20.88,28.39v1.67c0,18.37,7.93,27.77,20.25,27.77s21.09-9.39,21.09-27.98m-79.34.63v-1.67C127.4,19.83,148.69,0,173.12,0c16.49,0,26.31,7.1,32.57,18.16V2.92h37.37v109.19h-37.37v-17.54c-5.64,11.07-17.12,20.04-32.78,20.04-24.22,0-45.51-18.16-45.51-55.95"/>
        <polygon points="317.8 61.76 338.68 3.51 374.38 3.51 315.92 149.24 280.22 149.24 298.39 101.64 254.75 3.51 295.25 3.51 317.8 61.76"/>
        <polygon points="376.31 112.7 376.31 86.82 426 31.7 382.37 31.7 382.16 3.51 469.63 3.51 469.63 31.07 422.03 84.31 473.18 84.31 473.18 112.7 376.31 112.7"/>
      </g>
      <path class="cls-1" d="m490.8,98.05c.44-30.07,23.21-54.71,54.16-54.71s55.04,24.64,55.04,54.71-23.43,54.49-55.04,54.49-54.16-24.19-54.16-54.49"/>
    </g>
  </g>
</svg>